# Blender v2.90.1 OBJ File: ''
# www.blender.org
o Cylinder.001
v -0.025743 0.209857 0.789128
v -0.019421 0.398352 0.701166
v -0.019866 0.206641 0.777174
v -0.020609 0.214976 0.808391
v -0.025619 0.409160 0.719803
v -0.025640 0.212251 0.798097
v -0.004569 0.394804 0.695407
v -0.005149 0.204761 0.770377
v 0.018991 0.213618 0.803953
v 0.021511 0.403999 0.712136
v 0.018882 0.412055 0.726082
v 0.011077 0.215900 0.812372
v 0.010798 0.416420 0.733453
v 0.014275 0.206437 0.776973
v 0.007043 0.395642 0.697189
v 0.014716 0.398152 0.701770
v -0.025539 0.404534 0.711755
v 0.021304 0.209442 0.788347
v -0.011219 0.216622 0.814712
v 0.000073 0.418527 0.736821
v -0.011539 0.417690 0.735040
v -0.020799 0.414456 0.729154
v -0.010191 0.001881 0.839456
v 0.000430 0.217021 0.816399
v 0.021737 0.001881 0.811440
v -0.024978 0.001881 0.822590
v -0.025280 0.001881 0.813312
v 0.014458 0.001881 0.799829
v 0.006500 0.205161 0.772065
v 0.012047 0.001881 0.836531
v 0.019772 0.001881 0.827641
v -0.019671 0.001881 0.800809
v -0.005108 0.001881 0.793442
v -0.019720 0.001881 0.833128
v 0.001492 0.001881 0.840939
v 0.006576 0.001881 0.794926
v 0.007332 0.560343 0.575400
v 0.010396 0.589777 0.605152
v -0.000391 0.592666 0.607627
v -0.019199 0.563949 0.577965
v -0.025750 0.579190 0.593044
v -0.004242 0.559057 0.573641
v 0.021511 0.572293 0.587998
v 0.018617 0.583670 0.599334
v 0.014915 0.563961 0.579345
v -0.025517 0.572645 0.586465
v 0.006419 0.688041 0.414998
v 0.008969 0.724157 0.436212
v -0.001856 0.727571 0.437623
v -0.020145 0.692148 0.415966
v -0.022448 0.720045 0.432122
v -0.026953 0.710754 0.426458
v -0.005120 0.686328 0.413378
v 0.020376 0.702856 0.424395
v 0.017287 0.716768 0.432348
v 0.013932 0.692564 0.418042
v -0.026607 0.702733 0.421796
v -0.011964 0.591381 0.605869
v -0.021109 0.586725 0.600815
v 0.009626 0.810402 0.238147
v -0.001213 0.814049 0.238393
v -0.019183 0.774212 0.226210
v -0.021714 0.805329 0.234571
v -0.026136 0.794885 0.231397
v -0.004130 0.767943 0.225539
v 0.021192 0.786790 0.232475
v 0.017993 0.802278 0.236501
v 0.014843 0.775199 0.228852
v -0.025724 0.785934 0.228970
v -0.013394 0.725859 0.436003
v -0.012721 0.811961 0.237018
v 0.009853 0.842634 0.003543
v -0.001013 0.846205 0.003543
v -0.018982 0.804549 0.003543
v -0.021551 0.836765 0.003543
v -0.025971 0.825850 0.003543
v -0.003889 0.798340 0.003543
v 0.021470 0.818375 0.003543
v 0.018248 0.834372 0.003543
v 0.007378 0.770032 0.226914
v 0.015119 0.806232 0.003543
v -0.025549 0.816576 0.003543
v -0.012545 0.843817 0.003543
v 0.007643 0.800730 0.003543
v -0.019421 0.398351 -0.694079
v -0.025743 0.209857 -0.782042
v -0.019866 0.206640 -0.770087
v -0.025619 0.409160 -0.712716
v -0.020609 0.214976 -0.801304
v -0.025640 0.212250 -0.791010
v -0.004569 0.394804 -0.688320
v -0.005149 0.204761 -0.763290
v 0.018991 0.213617 -0.796866
v 0.021511 0.403999 -0.705049
v 0.021304 0.209441 -0.781260
v 0.011077 0.215899 -0.805285
v 0.018882 0.412055 -0.718995
v 0.014275 0.206436 -0.769886
v 0.007043 0.395642 -0.690102
v 0.006500 0.205161 -0.764978
v -0.025539 0.404534 -0.704668
v 0.014716 0.398151 -0.694683
v -0.011219 0.216622 -0.807625
v 0.000073 0.418527 -0.729734
v 0.000430 0.217021 -0.809312
v -0.020799 0.414456 -0.722067
v -0.010191 0.001881 -0.832369
v 0.001492 0.001881 -0.833852
v 0.021737 0.001881 -0.804353
v 0.014458 0.001881 -0.792742
v -0.024978 0.001881 -0.815503
v -0.025280 0.001881 -0.806225
v 0.006576 0.001881 -0.787839
v 0.012047 0.001881 -0.829444
v 0.019772 0.001881 -0.820554
v -0.019671 0.001881 -0.793722
v -0.005108 0.001881 -0.786355
v -0.019720 0.001881 -0.826041
v 0.007332 0.560343 -0.568313
v 0.010396 0.589777 -0.598065
v 0.010798 0.416420 -0.726366
v -0.019199 0.563949 -0.570878
v -0.025750 0.579190 -0.585957
v -0.004242 0.559057 -0.566554
v 0.021511 0.572293 -0.580911
v 0.018617 0.583670 -0.592248
v 0.014915 0.563960 -0.572259
v -0.025517 0.572645 -0.579378
v 0.006419 0.688041 -0.407911
v -0.000391 0.592666 -0.600540
v 0.008969 0.724157 -0.429125
v -0.020145 0.692148 -0.408879
v -0.022448 0.720045 -0.425036
v -0.021109 0.586725 -0.593729
v -0.005120 0.686328 -0.406291
v 0.020376 0.702856 -0.417308
v 0.017287 0.716768 -0.425261
v 0.013932 0.692564 -0.410955
v -0.026607 0.702733 -0.414709
v -0.011964 0.591381 -0.598782
v -0.011539 0.417689 -0.727953
v -0.001856 0.727571 -0.430536
v 0.009626 0.810401 -0.231060
v -0.019183 0.774212 -0.219123
v -0.026953 0.710754 -0.419371
v -0.021714 0.805329 -0.227484
v -0.004130 0.767943 -0.218452
v 0.021192 0.786790 -0.225388
v 0.017993 0.802278 -0.229415
v 0.014843 0.775198 -0.221765
v -0.025724 0.785934 -0.221883
v -0.013394 0.725859 -0.428916
v -0.001213 0.814049 -0.231306
v -0.026136 0.794885 -0.224310
v 0.007378 0.770032 -0.219827
v -0.012721 0.811960 -0.229931
vt 0.020213 0.184712
vt 0.096213 0.073226
vt 0.096213 0.073226
vt 0.056574 0.386627
vt 0.012720 0.277618
vt 0.012720 0.277618
vt 0.244152 0.012924
vt 0.244152 0.012924
vt 0.450248 0.376418
vt 0.482421 0.220342
vt 0.450248 0.376418
vt 0.366318 0.458649
vt 0.366318 0.458649
vt 0.431948 0.095211
vt 0.358862 0.037365
vt 0.431948 0.095211
vt 0.020213 0.184712
vt 0.482421 0.220342
vt 0.141138 0.462635
vt 0.255848 0.487076
vt 0.141138 0.462635
vt 0.056574 0.386627
vt 0.141138 0.462635
vt 0.255848 0.487076
vt 0.482421 0.220342
vt 0.012720 0.277618
vt 0.020213 0.184712
vt 0.431948 0.095211
vt 0.358862 0.037365
vt 0.366318 0.458649
vt 0.450248 0.376418
vt 0.096213 0.073226
vt 0.244152 0.012924
vt 0.056574 0.386627
vt 0.255848 0.487076
vt 0.358862 0.037365
vt 0.358862 0.037365
vt 0.366318 0.458649
vt 0.255848 0.487076
vt 0.096213 0.073226
vt 0.012720 0.277618
vt 0.244152 0.012924
vt 0.482421 0.220342
vt 0.450248 0.376418
vt 0.431948 0.095211
vt 0.020213 0.184712
vt 0.358862 0.037365
vt 0.366318 0.458649
vt 0.255848 0.487076
vt 0.096213 0.073226
vt 0.056574 0.386627
vt 0.012720 0.277618
vt 0.244152 0.012924
vt 0.482421 0.220342
vt 0.450248 0.376418
vt 0.431948 0.095211
vt 0.020213 0.184712
vt 0.141138 0.462635
vt 0.056574 0.386627
vt 0.366318 0.458649
vt 0.255848 0.487076
vt 0.096213 0.073226
vt 0.056574 0.386627
vt 0.012720 0.277618
vt 0.244152 0.012924
vt 0.482421 0.220342
vt 0.450248 0.376418
vt 0.431948 0.095211
vt 0.020213 0.184712
vt 0.141138 0.462635
vt 0.141138 0.462635
vt 0.366318 0.458649
vt 0.255848 0.487076
vt 0.096213 0.073226
vt 0.056574 0.386627
vt 0.012720 0.277618
vt 0.244152 0.012924
vt 0.482421 0.220342
vt 0.450248 0.376418
vt 0.358862 0.037365
vt 0.431948 0.095211
vt 0.020213 0.184712
vt 0.141138 0.462635
vt 0.358862 0.037365
vt 0.096213 0.073226
vt 0.020213 0.184712
vt 0.096213 0.073226
vt 0.012720 0.277618
vt 0.056574 0.386627
vt 0.012720 0.277618
vt 0.244152 0.012924
vt 0.244152 0.012924
vt 0.450248 0.376418
vt 0.482421 0.220342
vt 0.482421 0.220342
vt 0.366318 0.458649
vt 0.450248 0.376418
vt 0.431948 0.095211
vt 0.358862 0.037365
vt 0.358862 0.037365
vt 0.020213 0.184712
vt 0.431948 0.095211
vt 0.141138 0.462635
vt 0.255848 0.487076
vt 0.255848 0.487076
vt 0.056574 0.386627
vt 0.141138 0.462635
vt 0.255848 0.487076
vt 0.482421 0.220342
vt 0.431948 0.095211
vt 0.012720 0.277618
vt 0.020213 0.184712
vt 0.358862 0.037365
vt 0.366318 0.458649
vt 0.450248 0.376418
vt 0.096213 0.073226
vt 0.244152 0.012924
vt 0.056574 0.386627
vt 0.358862 0.037365
vt 0.366318 0.458649
vt 0.366318 0.458649
vt 0.096213 0.073226
vt 0.012720 0.277618
vt 0.244152 0.012924
vt 0.482421 0.220342
vt 0.450248 0.376418
vt 0.431948 0.095211
vt 0.020213 0.184712
vt 0.358862 0.037365
vt 0.255848 0.487076
vt 0.366318 0.458649
vt 0.096213 0.073226
vt 0.056574 0.386627
vt 0.056574 0.386627
vt 0.244152 0.012924
vt 0.482421 0.220342
vt 0.450248 0.376418
vt 0.431948 0.095211
vt 0.020213 0.184712
vt 0.141138 0.462635
vt 0.141138 0.462635
vt 0.255848 0.487076
vt 0.366318 0.458649
vt 0.096213 0.073226
vt 0.012720 0.277618
vt 0.056574 0.386627
vt 0.244152 0.012924
vt 0.482421 0.220342
vt 0.450248 0.376418
vt 0.431948 0.095211
vt 0.020213 0.184712
vt 0.141138 0.462635
vt 0.255848 0.487076
vt 0.012720 0.277618
vt 0.358862 0.037365
vt 0.141138 0.462635
vn -0.5926 0.6703 -0.4466
vn -0.3849 -0.9220 -0.0417
vn -0.9891 0.0482 0.1390
vn -0.5265 0.8450 0.0937
vn -0.6300 -0.6569 0.4143
vn -0.4155 0.2293 0.8802
vn -0.0737 -0.9803 -0.1835
vn -0.8519 -0.1176 -0.5102
vn 0.5924 0.8024 -0.0718
vn 0.7059 0.3560 0.6123
vn 0.5626 -0.6142 0.5533
vn 0.4165 0.8791 0.2316
vn 0.3726 -0.4731 0.7983
vn 0.4045 0.6036 -0.6871
vn 0.9403 -0.1667 -0.2967
vn 0.4270 -0.9025 -0.0562
vn -0.5986 -0.7828 0.1702
vn 0.5580 0.7077 -0.4334
vn -0.2117 0.9161 0.3405
vn -0.7598 0.3244 0.5635
vn -0.2607 -0.4469 0.8557
vn -0.5065 -0.5426 0.6702
vn -0.1192 0.9240 0.3634
vn -0.7473 0.1631 0.6442
vn 0.6272 0.6962 -0.3492
vn -0.6048 0.7947 -0.0524
vn 0.2871 0.2357 0.9284
vn 0.1552 0.9200 -0.3599
vn 0.9396 -0.0778 -0.3332
vn 0.3990 0.8694 0.2913
vn 0.5500 0.8351 0.0032
vn -0.3804 0.6840 -0.6225
vn -0.9409 -0.1541 0.3015
vn -0.5960 0.7521 0.2813
vn 0.1679 0.7787 0.6045
vn 0.0400 0.8920 -0.4503
vn 0.2269 -0.9717 0.0660
vn -0.3663 0.6657 0.6502
vn 0.0535 -0.1856 0.9812
vn -0.3762 -0.9056 0.1956
vn -0.6328 -0.5325 0.5621
vn -0.0634 -0.9951 0.0762
vn 0.6846 0.5197 0.5111
vn 0.5599 -0.4429 0.7002
vn 0.4468 -0.8784 0.1696
vn -0.5936 -0.7191 0.3613
vn 0.2372 -0.9183 0.3169
vn -0.3767 0.8135 0.4430
vn 0.0481 0.0747 0.9960
vn -0.3687 -0.8291 0.4204
vn -0.9642 -0.2239 -0.1420
vn -0.6304 -0.3774 0.6783
vn -0.0528 -0.9423 0.3305
vn 0.6856 0.6335 0.3585
vn 0.5575 -0.2418 0.7942
vn 0.4498 -0.7984 0.4004
vn -0.5904 -0.6079 0.5309
vn -0.9740 0.1661 0.1539
vn -0.5064 -0.3642 0.7816
vn -0.3847 0.9014 0.1988
vn 0.0364 0.3335 0.9420
vn -0.3702 -0.6913 0.6206
vn -0.9626 -0.2544 -0.0927
vn -0.6360 -0.1923 0.7473
vn -0.0552 -0.8227 0.5658
vn 0.6774 0.7119 0.1851
vn 0.5517 -0.0234 0.8337
vn 0.4468 -0.6656 0.5978
vn -0.5928 -0.4518 0.6667
vn -0.2392 0.8785 -0.4136
vn -0.2888 0.2856 0.9138
vn -0.4031 0.9151 -0.0000
vn 0.0321 0.6678 -0.7437
vn -0.4570 -0.3811 -0.8037
vn -0.9621 -0.2726 -0.0000
vn -0.6116 0.2195 -0.7602
vn -0.0661 -0.5904 -0.8044
vn 0.5357 -0.8444 -0.0001
vn 0.5111 0.3959 -0.7629
vn 0.2658 -0.3879 -0.8825
vn 0.5317 -0.3343 -0.7782
vn -0.6615 -0.0703 -0.7467
vn -0.2405 0.6315 -0.7371
vn 0.3246 -0.6131 -0.7203
vn 0.1162 -0.3839 0.9160
vn -0.6021 0.6895 0.4026
vn -0.9891 0.0480 -0.1391
vn -0.7781 -0.1561 0.6084
vn -0.4986 0.8580 -0.1234
vn -0.4155 0.2292 -0.8802
vn 0.6764 -0.3752 0.6338
vn -0.8519 -0.1178 0.5102
vn 0.8843 -0.1823 0.4298
vn 0.7059 0.3562 -0.6122
vn 0.5663 0.7270 0.3883
vn 0.9974 -0.0417 -0.0586
vn 0.1558 0.2907 -0.9440
vn -0.0414 -0.2771 0.9600
vn 0.9403 -0.1667 0.2967
vn 0.2057 0.5794 0.7887
vn -0.4532 -0.4747 0.7545
vn 0.9802 -0.0684 -0.1856
vn 0.5353 0.1611 -0.8292
vn -0.7598 0.3244 -0.5634
vn 0.0741 0.9308 -0.3579
vn -0.9716 -0.1538 0.1797
vn 0.9991 -0.0270 -0.0323
vn 0.0878 0.7817 -0.6175
vn -0.3358 -0.2926 0.8953
vn 0.1998 0.9255 0.3218
vn -0.5809 0.8140 0.0062
vn 0.2912 0.2313 -0.9283
vn 0.1206 0.8821 0.4554
vn 0.6081 -0.0571 0.7918
vn 0.5160 0.8502 -0.1048
vn -0.4473 0.6944 0.5637
vn -0.9388 -0.1588 -0.3057
vn -0.5567 0.7604 -0.3345
vn 0.9426 -0.2937 0.1588
vn -0.3663 0.6658 -0.6500
vn 0.2728 0.9590 -0.0771
vn 0.1315 -0.6063 0.7843
vn -0.7724 -0.3205 0.5483
vn 0.6854 -0.5599 0.4655
vn 0.6846 0.5198 -0.5110
vn 0.1393 0.5285 -0.8374
vn 0.9776 -0.0341 -0.2079
vn -0.4398 -0.6633 0.6055
vn 0.9483 -0.3051 0.0879
vn 0.8573 0.3519 -0.3757
vn -0.3767 0.8136 -0.4429
vn 0.1429 -0.7799 0.6094
vn -0.9642 -0.2240 0.1419
vn -0.5093 0.7916 0.3376
vn 0.6921 -0.6616 0.2885
vn 0.6856 0.6336 -0.3584
vn 0.1291 0.7240 -0.6776
vn 0.9770 0.0452 -0.2085
vn -0.4274 -0.8046 0.4124
vn -0.9740 0.1661 -0.1539
vn -0.1946 0.9763 -0.0950
vn 0.8504 0.4520 -0.2694
vn -0.3846 0.9015 -0.1985
vn 0.1461 -0.9129 0.3811
vn -0.4607 0.7438 -0.4842
vn -0.9626 -0.2544 0.0928
vn 0.7014 -0.6847 0.1978
vn 0.6774 0.7119 -0.1850
vn 0.1183 0.8778 -0.4642
vn 0.9750 0.1064 -0.1949
vn -0.4248 -0.8862 0.1848
vn 0.4908 0.7042 -0.5130
vn -0.7811 0.5812 -0.2284
vn -0.4684 0.8456 -0.2561
vn 0.3053 -0.3708 0.8771
vn 0.4899 0.8430 -0.2222
s 1
f 1/1/1 2/2/2 3/3/3
f 4/4/4 5/5/5 6/6/6
f 3/3/3 7/7/7 8/8/8
f 9/9/9 10/10/10 11/11/11
f 12/12/12 11/11/11 13/13/13
f 14/14/14 15/15/15 16/16/16
f 6/6/6 17/17/17 1/1/1
f 18/18/18 16/16/16 10/10/10
f 19/19/19 20/20/20 21/21/21
f 19/19/19 22/22/22 4/4/4
f 23/23/23 24/24/24 19/19/19
f 25/25/25 14/14/14 18/18/18
f 26/26/26 1/1/1 27/27/27
f 28/28/28 29/29/29 14/14/14
f 30/30/30 9/9/9 12/12/12
f 31/31/31 18/18/18 9/9/9
f 32/32/32 8/8/8 33/33/33
f 34/34/34 6/6/6 26/26/26
f 27/27/27 3/3/3 32/32/32
f 35/35/35 12/12/12 24/24/24
f 36/36/36 8/8/8 29/29/29
f 23/23/23 4/4/4 34/34/34
f 7/7/7 37/37/37 15/15/15
f 20/20/20 38/38/38 39/39/39
f 17/17/17 40/40/40 2/2/2
f 22/22/22 41/41/41 5/5/5
f 2/2/2 42/42/42 7/7/7
f 11/11/11 43/43/43 44/44/44
f 13/13/13 44/44/44 38/38/38
f 15/15/15 45/45/45 16/16/16
f 5/5/5 46/46/46 17/17/17
f 10/10/10 45/45/45 43/43/43
f 24/24/24 13/13/13 20/20/20
f 8/8/8 15/15/15 29/29/29
f 42/42/42 47/47/47 37/37/37
f 39/39/39 48/48/48 49/49/49
f 46/46/46 50/50/50 40/40/40
f 41/41/41 51/51/51 52/52/52
f 40/40/40 53/53/53 42/42/42
f 44/44/44 54/54/54 55/55/55
f 38/38/38 55/55/55 48/48/48
f 37/37/37 56/56/56 45/45/45
f 41/41/41 57/57/57 46/46/46
f 45/45/45 54/54/54 43/43/43
f 22/22/22 58/58/58 59/59/59
f 21/21/21 39/39/39 58/58/58
f 49/49/49 60/60/60 61/61/61
f 57/57/57 62/62/62 50/50/50
f 52/52/52 63/63/63 64/64/64
f 50/50/50 65/65/65 53/53/53
f 55/55/55 66/66/66 67/67/67
f 48/48/48 67/67/67 60/60/60
f 47/47/47 68/68/68 56/56/56
f 52/52/52 69/69/69 57/57/57
f 56/56/56 66/66/66 54/54/54
f 70/70/70 61/61/61 71/71/71
f 59/59/59 70/70/70 51/51/51
f 58/58/58 49/49/49 70/70/70
f 61/61/61 72/72/72 73/73/73
f 69/69/69 74/74/74 62/62/62
f 64/64/64 75/75/75 76/76/76
f 62/62/62 77/77/77 65/65/65
f 67/67/67 78/78/78 79/79/79
f 60/60/60 79/79/79 72/72/72
f 80/80/80 81/81/81 68/68/68
f 64/64/64 82/82/82 69/69/69
f 68/68/68 78/78/78 66/66/66
f 71/71/71 73/73/73 83/83/83
f 53/53/53 80/80/80 47/47/47
f 51/51/51 71/71/71 63/63/63
f 65/65/65 84/84/84 80/80/80
f 63/63/63 83/83/83 75/75/75
f 23/23/23 26/26/26 36/36/36
f 85/85/85 86/86/86 87/87/87
f 88/88/88 89/89/89 90/90/90
f 91/91/91 87/87/87 92/92/92
f 93/93/93 94/94/94 95/95/95
f 96/96/96 97/97/97 93/93/93
f 98/98/98 99/99/99 100/100/100
f 101/101/101 90/90/90 86/86/86
f 95/95/95 102/102/102 98/98/98
f 103/103/103 104/104/104 105/105/105
f 106/106/106 103/103/103 89/89/89
f 107/107/107 105/105/105 108/108/108
f 109/109/109 98/98/98 110/110/110
f 86/86/86 111/111/111 112/112/112
f 110/110/110 100/100/100 113/113/113
f 114/114/114 93/93/93 115/115/115
f 115/115/115 95/95/95 109/109/109
f 92/92/92 116/116/116 117/117/117
f 90/90/90 118/118/118 111/111/111
f 87/87/87 112/112/112 116/116/116
f 108/108/108 96/96/96 114/114/114
f 113/113/113 92/92/92 117/117/117
f 89/89/89 107/107/107 118/118/118
f 119/119/119 91/91/91 99/99/99
f 104/104/104 120/120/120 121/121/121
f 122/122/122 101/101/101 85/85/85
f 123/123/123 106/106/106 88/88/88
f 124/124/124 85/85/85 91/91/91
f 97/97/97 125/125/125 94/94/94
f 121/121/121 126/126/126 97/97/97
f 127/127/127 99/99/99 102/102/102
f 128/128/128 88/88/88 101/101/101
f 94/94/94 127/127/127 102/102/102
f 105/105/105 121/121/121 96/96/96
f 99/99/99 92/92/92 100/100/100
f 129/129/129 124/124/124 119/119/119
f 130/130/130 131/131/131 120/120/120
f 132/132/132 128/128/128 122/122/122
f 123/123/123 133/133/133 134/134/134
f 135/135/135 122/122/122 124/124/124
f 126/126/126 136/136/136 125/125/125
f 120/120/120 137/137/137 126/126/126
f 138/138/138 119/119/119 127/127/127
f 139/139/139 123/123/123 128/128/128
f 136/136/136 127/127/127 125/125/125
f 106/106/106 140/140/140 141/141/141
f 141/141/141 130/130/130 104/104/104
f 142/142/142 143/143/143 131/131/131
f 144/144/144 139/139/139 132/132/132
f 145/145/145 146/146/146 133/133/133
f 147/147/147 132/132/132 135/135/135
f 137/137/137 148/148/148 136/136/136
f 131/131/131 149/149/149 137/137/137
f 150/150/150 129/129/129 138/138/138
f 151/151/151 145/145/145 139/139/139
f 148/148/148 138/138/138 136/136/136
f 152/152/152 153/153/153 142/142/142
f 134/134/134 152/152/152 140/140/140
f 140/140/140 142/142/142 130/130/130
f 153/153/153 72/72/72 143/143/143
f 74/74/74 151/151/151 144/144/144
f 154/154/154 75/75/75 146/146/146
f 77/77/77 144/144/144 147/147/147
f 149/149/149 78/78/78 148/148/148
f 143/143/143 79/79/79 149/149/149
f 81/81/81 155/155/155 150/150/150
f 82/82/82 154/154/154 151/151/151
f 78/78/78 150/150/150 148/148/148
f 156/156/156 73/73/73 153/153/153
f 155/155/155 135/135/135 129/129/129
f 133/133/133 156/156/156 152/152/152
f 84/84/84 147/147/147 155/155/155
f 146/146/146 83/83/83 156/156/156
f 113/113/113 111/111/111 114/114/114
f 1/1/1 17/17/17 2/2/2
f 4/4/4 22/22/22 5/5/5
f 3/3/3 2/2/2 7/7/7
f 9/9/9 18/18/18 10/10/10
f 12/12/12 9/9/9 11/11/11
f 14/14/14 29/29/29 15/15/15
f 6/6/6 5/5/5 17/17/17
f 18/18/18 14/14/14 16/16/16
f 19/19/19 24/24/24 20/20/20
f 19/19/19 21/21/21 22/22/22
f 23/23/23 35/35/35 24/24/24
f 25/25/25 28/28/28 14/14/14
f 26/26/26 6/6/6 1/1/1
f 28/28/28 36/36/36 29/29/29
f 30/30/30 31/31/31 9/9/9
f 31/31/31 25/25/25 18/18/18
f 32/32/32 3/3/3 8/8/8
f 34/34/34 4/4/4 6/6/6
f 27/27/27 1/1/1 3/3/3
f 35/35/35 30/30/30 12/12/12
f 36/36/36 33/33/33 8/8/8
f 23/23/23 19/19/19 4/4/4
f 7/7/7 42/42/42 37/37/37
f 20/20/20 13/13/13 38/38/38
f 17/17/17 46/46/46 40/40/40
f 22/22/22 59/59/59 41/41/41
f 2/2/2 40/40/40 42/42/42
f 11/11/11 10/10/10 43/43/43
f 13/13/13 11/11/11 44/44/44
f 15/15/15 37/37/37 45/45/45
f 5/5/5 41/41/41 46/46/46
f 10/10/10 16/16/16 45/45/45
f 24/24/24 12/12/12 13/13/13
f 8/8/8 7/7/7 15/15/15
f 42/42/42 53/53/53 47/47/47
f 39/39/39 38/38/38 48/48/48
f 46/46/46 57/57/57 50/50/50
f 41/41/41 59/59/59 51/51/51
f 40/40/40 50/50/50 53/53/53
f 44/44/44 43/43/43 54/54/54
f 38/38/38 44/44/44 55/55/55
f 37/37/37 47/47/47 56/56/56
f 41/41/41 52/52/52 57/57/57
f 45/45/45 56/56/56 54/54/54
f 22/22/22 21/21/21 58/58/58
f 21/21/21 20/20/20 39/39/39
f 49/49/49 48/48/48 60/60/60
f 57/57/57 69/69/69 62/62/62
f 52/52/52 51/51/51 63/63/63
f 50/50/50 62/62/62 65/65/65
f 55/55/55 54/54/54 66/66/66
f 48/48/48 55/55/55 67/67/67
f 47/47/47 80/80/80 68/68/68
f 52/52/52 64/64/64 69/69/69
f 56/56/56 68/68/68 66/66/66
f 70/70/70 49/49/49 61/61/61
f 59/59/59 58/58/58 70/70/70
f 58/58/58 39/39/39 49/49/49
f 61/61/61 60/60/60 72/72/72
f 69/69/69 82/82/82 74/74/74
f 64/64/64 63/63/63 75/75/75
f 62/62/62 74/74/74 77/77/77
f 67/67/67 66/66/66 78/78/78
f 60/60/60 67/67/67 79/79/79
f 80/80/80 84/84/84 81/81/81
f 64/64/64 76/76/76 82/82/82
f 68/68/68 81/81/81 78/78/78
f 71/71/71 61/61/61 73/73/73
f 53/53/53 65/65/65 80/80/80
f 51/51/51 70/70/70 71/71/71
f 65/65/65 77/77/77 84/84/84
f 63/63/63 71/71/71 83/83/83
f 25/25/25 31/31/31 28/28/28
f 31/31/31 30/30/30 28/28/28
f 30/30/30 35/35/35 23/23/23
f 23/23/23 34/34/34 26/26/26
f 26/26/26 27/27/27 36/36/36
f 27/27/27 32/32/32 33/33/33
f 36/36/36 27/27/27 33/33/33
f 36/36/36 28/28/28 30/30/30
f 30/30/30 23/23/23 36/36/36
f 85/85/85 101/101/101 86/86/86
f 88/88/88 106/106/106 89/89/89
f 91/91/91 85/85/85 87/87/87
f 93/93/93 97/97/97 94/94/94
f 96/96/96 121/121/121 97/97/97
f 98/98/98 102/102/102 99/99/99
f 101/101/101 88/88/88 90/90/90
f 95/95/95 94/94/94 102/102/102
f 103/103/103 141/141/141 104/104/104
f 106/106/106 141/141/141 103/103/103
f 107/107/107 103/103/103 105/105/105
f 109/109/109 95/95/95 98/98/98
f 86/86/86 90/90/90 111/111/111
f 110/110/110 98/98/98 100/100/100
f 114/114/114 96/96/96 93/93/93
f 115/115/115 93/93/93 95/95/95
f 92/92/92 87/87/87 116/116/116
f 90/90/90 89/89/89 118/118/118
f 87/87/87 86/86/86 112/112/112
f 108/108/108 105/105/105 96/96/96
f 113/113/113 100/100/100 92/92/92
f 89/89/89 103/103/103 107/107/107
f 119/119/119 124/124/124 91/91/91
f 104/104/104 130/130/130 120/120/120
f 122/122/122 128/128/128 101/101/101
f 123/123/123 134/134/134 106/106/106
f 124/124/124 122/122/122 85/85/85
f 97/97/97 126/126/126 125/125/125
f 121/121/121 120/120/120 126/126/126
f 127/127/127 119/119/119 99/99/99
f 128/128/128 123/123/123 88/88/88
f 94/94/94 125/125/125 127/127/127
f 105/105/105 104/104/104 121/121/121
f 99/99/99 91/91/91 92/92/92
f 129/129/129 135/135/135 124/124/124
f 130/130/130 142/142/142 131/131/131
f 132/132/132 139/139/139 128/128/128
f 123/123/123 145/145/145 133/133/133
f 135/135/135 132/132/132 122/122/122
f 126/126/126 137/137/137 136/136/136
f 120/120/120 131/131/131 137/137/137
f 138/138/138 129/129/129 119/119/119
f 139/139/139 145/145/145 123/123/123
f 136/136/136 138/138/138 127/127/127
f 106/106/106 134/134/134 140/140/140
f 141/141/141 140/140/140 130/130/130
f 142/142/142 153/153/153 143/143/143
f 144/144/144 151/151/151 139/139/139
f 145/145/145 154/154/154 146/146/146
f 147/147/147 144/144/144 132/132/132
f 137/137/137 149/149/149 148/148/148
f 131/131/131 143/143/143 149/149/149
f 150/150/150 155/155/155 129/129/129
f 151/151/151 154/154/154 145/145/145
f 148/148/148 150/150/150 138/138/138
f 152/152/152 156/156/156 153/153/153
f 134/134/134 133/133/133 152/152/152
f 140/140/140 152/152/152 142/142/142
f 153/153/153 73/73/73 72/72/72
f 74/74/74 82/82/82 151/151/151
f 154/154/154 76/76/76 75/75/75
f 77/77/77 74/74/74 144/144/144
f 149/149/149 79/79/79 78/78/78
f 143/143/143 72/72/72 79/79/79
f 81/81/81 84/84/84 155/155/155
f 82/82/82 76/76/76 154/154/154
f 78/78/78 81/81/81 150/150/150
f 156/156/156 83/83/83 73/73/73
f 155/155/155 147/147/147 135/135/135
f 133/133/133 146/146/146 156/156/156
f 84/84/84 77/77/77 147/147/147
f 146/146/146 75/75/75 83/83/83
f 114/114/114 115/115/115 110/110/110
f 115/115/115 109/109/109 110/110/110
f 110/110/110 113/113/113 114/114/114
f 113/113/113 117/117/117 112/112/112
f 117/117/117 116/116/116 112/112/112
f 112/112/112 111/111/111 113/113/113
f 111/111/111 118/118/118 107/107/107
f 107/107/107 108/108/108 114/114/114
f 111/111/111 107/107/107 114/114/114
