# Blender v2.91.0 OBJ File: 'gizmos.blend'
# www.blender.org
o Cylinder.002
v -0.001881 0.006576 0.794926
v -0.001881 -0.019720 0.833128
v -0.001881 0.012047 0.836531
v -0.001881 0.019772 0.827641
v -0.001881 0.021737 0.811440
v -0.001881 0.014458 0.799829
v -0.001881 -0.005108 0.793442
v -0.001881 -0.019671 0.800809
v -0.001881 -0.025280 0.813312
v -0.001881 -0.024978 0.822590
v -0.001881 -0.010191 0.839456
v -0.001881 0.001492 0.840939
v -0.205161 0.006500 0.772065
v -0.214976 -0.020609 0.808391
v -0.215900 0.011077 0.812372
v -0.213618 0.018991 0.803953
v -0.209442 0.021304 0.788347
v -0.206437 0.014275 0.776973
v -0.204761 -0.005149 0.770377
v -0.206641 -0.019866 0.777174
v -0.209857 -0.025743 0.789128
v -0.212251 -0.025640 0.798097
v -0.216622 -0.011219 0.814712
v -0.217021 0.000430 0.816399
v -0.395642 0.007043 0.697189
v -0.414456 -0.020799 0.729154
v -0.416420 0.010798 0.733453
v -0.412055 0.018882 0.726082
v -0.403999 0.021511 0.712136
v -0.398152 0.014716 0.701770
v -0.394804 -0.004569 0.695407
v -0.398352 -0.019421 0.701166
v -0.404534 -0.025539 0.711755
v -0.409160 -0.025619 0.719803
v -0.417690 -0.011539 0.735040
v -0.418527 0.000073 0.736821
v -0.560343 0.007332 0.575400
v -0.586725 -0.021109 0.600815
v -0.589777 0.010396 0.605152
v -0.583670 0.018617 0.599334
v -0.572293 0.021511 0.587998
v -0.563961 0.014915 0.579345
v -0.559057 -0.004242 0.573641
v -0.563949 -0.019199 0.577965
v -0.572645 -0.025517 0.586465
v -0.579190 -0.025750 0.593044
v -0.591381 -0.011964 0.605869
v -0.592666 -0.000391 0.607627
v -0.688041 0.006419 0.414998
v -0.720045 -0.022448 0.432122
v -0.724157 0.008969 0.436212
v -0.716768 0.017287 0.432348
v -0.702856 0.020376 0.424395
v -0.692564 0.013932 0.418042
v -0.686328 -0.005120 0.413378
v -0.692148 -0.020145 0.415966
v -0.702733 -0.026607 0.421796
v -0.710754 -0.026953 0.426458
v -0.725859 -0.013394 0.436003
v -0.727571 -0.001856 0.437623
v -0.770032 0.007378 0.226914
v -0.805329 -0.021714 0.234571
v -0.810402 0.009626 0.238147
v -0.802278 0.017993 0.236501
v -0.786790 0.021192 0.232475
v -0.775199 0.014843 0.228852
v -0.767943 -0.004130 0.225539
v -0.774212 -0.019183 0.226210
v -0.785934 -0.025724 0.228970
v -0.794885 -0.026136 0.231397
v -0.811961 -0.012721 0.237018
v -0.814049 -0.001213 0.238393
v -0.001881 0.006576 -0.787839
v -0.001881 -0.019720 -0.826041
v -0.001881 0.012047 -0.829444
v -0.001881 0.019772 -0.820554
v -0.001881 0.021737 -0.804353
v -0.001881 0.014458 -0.792742
v -0.001881 -0.005108 -0.786355
v -0.001881 -0.019671 -0.793722
v -0.001881 -0.025280 -0.806225
v -0.001881 -0.024978 -0.815503
v -0.001881 -0.010191 -0.832369
v -0.001881 0.001492 -0.833852
v -0.205161 0.006500 -0.764978
v -0.214976 -0.020609 -0.801304
v -0.215899 0.011077 -0.805285
v -0.213617 0.018991 -0.796866
v -0.209441 0.021304 -0.781260
v -0.206436 0.014275 -0.769886
v -0.204761 -0.005149 -0.763290
v -0.206640 -0.019866 -0.770087
v -0.209857 -0.025743 -0.782042
v -0.212250 -0.025640 -0.791010
v -0.216622 -0.011219 -0.807625
v -0.217021 0.000430 -0.809312
v -0.395642 0.007043 -0.690102
v -0.414456 -0.020799 -0.722067
v -0.416420 0.010798 -0.726366
v -0.412055 0.018882 -0.718995
v -0.403999 0.021511 -0.705049
v -0.398151 0.014716 -0.694683
v -0.394804 -0.004569 -0.688320
v -0.398351 -0.019421 -0.694079
v -0.404534 -0.025539 -0.704668
v -0.409160 -0.025619 -0.712716
v -0.417689 -0.011539 -0.727953
v -0.418527 0.000073 -0.729734
v -0.560343 0.007332 -0.568313
v -0.586725 -0.021109 -0.593729
v -0.589777 0.010396 -0.598065
v -0.583670 0.018617 -0.592248
v -0.572293 0.021511 -0.580911
v -0.563960 0.014915 -0.572259
v -0.559057 -0.004242 -0.566554
v -0.563949 -0.019199 -0.570878
v -0.572645 -0.025517 -0.579378
v -0.579190 -0.025750 -0.585957
v -0.591381 -0.011964 -0.598782
v -0.592666 -0.000391 -0.600540
v -0.688041 0.006419 -0.407911
v -0.720045 -0.022448 -0.425036
v -0.724157 0.008969 -0.429125
v -0.716768 0.017287 -0.425261
v -0.702856 0.020376 -0.417308
v -0.692564 0.013932 -0.410955
v -0.686328 -0.005120 -0.406291
v -0.692148 -0.020145 -0.408879
v -0.702733 -0.026607 -0.414709
v -0.710754 -0.026953 -0.419371
v -0.725859 -0.013394 -0.428916
v -0.727571 -0.001856 -0.430536
v -0.770032 0.007378 -0.219827
v -0.805329 -0.021714 -0.227484
v -0.810401 0.009626 -0.231060
v -0.802278 0.017993 -0.229415
v -0.786790 0.021192 -0.225388
v -0.775198 0.014843 -0.221765
v -0.767943 -0.004130 -0.218452
v -0.774212 -0.019183 -0.219123
v -0.785934 -0.025724 -0.221883
v -0.794885 -0.026136 -0.224310
v -0.811960 -0.012721 -0.229931
v -0.814049 -0.001213 -0.231306
v -0.800730 0.007643 0.003543
v -0.836765 -0.021551 0.003543
v -0.842634 0.009853 0.003543
v -0.834372 0.018248 0.003543
v -0.818375 0.021470 0.003543
v -0.806232 0.015119 0.003543
v -0.798340 -0.003889 0.003543
v -0.804549 -0.018982 0.003543
v -0.816576 -0.025549 0.003543
v -0.825850 -0.025971 0.003543
v -0.843817 -0.012545 0.003543
v -0.846205 -0.001013 0.003543
vt 0.020213 0.184712
vt 0.096213 0.073226
vt 0.096213 0.073226
vt 0.056574 0.386627
vt 0.012720 0.277618
vt 0.012720 0.277618
vt 0.244152 0.012924
vt 0.244152 0.012924
vt 0.450248 0.376418
vt 0.482421 0.220342
vt 0.450248 0.376418
vt 0.366318 0.458649
vt 0.366318 0.458649
vt 0.431948 0.095211
vt 0.358862 0.037365
vt 0.431948 0.095211
vt 0.020213 0.184712
vt 0.482421 0.220342
vt 0.141138 0.462635
vt 0.255848 0.487076
vt 0.141138 0.462635
vt 0.056574 0.386627
vt 0.141138 0.462635
vt 0.255848 0.487076
vt 0.482421 0.220342
vt 0.012720 0.277618
vt 0.020213 0.184712
vt 0.431948 0.095211
vt 0.358862 0.037365
vt 0.366318 0.458649
vt 0.450248 0.376418
vt 0.096213 0.073226
vt 0.244152 0.012924
vt 0.056574 0.386627
vt 0.255848 0.487076
vt 0.358862 0.037365
vt 0.358862 0.037365
vt 0.366318 0.458649
vt 0.255848 0.487076
vt 0.096213 0.073226
vt 0.012720 0.277618
vt 0.244152 0.012924
vt 0.482421 0.220342
vt 0.450248 0.376418
vt 0.431948 0.095211
vt 0.020213 0.184712
vt 0.358862 0.037365
vt 0.366318 0.458649
vt 0.255848 0.487076
vt 0.096213 0.073226
vt 0.056574 0.386627
vt 0.012720 0.277618
vt 0.244152 0.012924
vt 0.482421 0.220342
vt 0.450248 0.376418
vt 0.431948 0.095211
vt 0.020213 0.184712
vt 0.141138 0.462635
vt 0.056574 0.386627
vt 0.366318 0.458649
vt 0.255848 0.487076
vt 0.096213 0.073226
vt 0.056574 0.386627
vt 0.012720 0.277618
vt 0.244152 0.012924
vt 0.482421 0.220342
vt 0.450248 0.376418
vt 0.431948 0.095211
vt 0.020213 0.184712
vt 0.141138 0.462635
vt 0.141138 0.462635
vt 0.366318 0.458649
vt 0.255848 0.487076
vt 0.096213 0.073226
vt 0.056574 0.386627
vt 0.012720 0.277618
vt 0.244152 0.012924
vt 0.482421 0.220342
vt 0.450248 0.376418
vt 0.358862 0.037365
vt 0.431948 0.095211
vt 0.020213 0.184712
vt 0.141138 0.462635
vt 0.358862 0.037365
vt 0.096213 0.073226
vt 0.020213 0.184712
vt 0.096213 0.073226
vt 0.012720 0.277618
vt 0.056574 0.386627
vt 0.012720 0.277618
vt 0.244152 0.012924
vt 0.244152 0.012924
vt 0.450248 0.376418
vt 0.482421 0.220342
vt 0.482421 0.220342
vt 0.366318 0.458649
vt 0.450248 0.376418
vt 0.431948 0.095211
vt 0.358862 0.037365
vt 0.358862 0.037365
vt 0.020213 0.184712
vt 0.431948 0.095211
vt 0.141138 0.462635
vt 0.255848 0.487076
vt 0.255848 0.487076
vt 0.056574 0.386627
vt 0.141138 0.462635
vt 0.255848 0.487076
vt 0.482421 0.220342
vt 0.431948 0.095211
vt 0.012720 0.277618
vt 0.020213 0.184712
vt 0.358862 0.037365
vt 0.366318 0.458649
vt 0.450248 0.376418
vt 0.096213 0.073226
vt 0.244152 0.012924
vt 0.056574 0.386627
vt 0.358862 0.037365
vt 0.366318 0.458649
vt 0.366318 0.458649
vt 0.096213 0.073226
vt 0.012720 0.277618
vt 0.244152 0.012924
vt 0.482421 0.220342
vt 0.450248 0.376418
vt 0.431948 0.095211
vt 0.020213 0.184712
vt 0.358862 0.037365
vt 0.255848 0.487076
vt 0.366318 0.458649
vt 0.096213 0.073226
vt 0.056574 0.386627
vt 0.056574 0.386627
vt 0.244152 0.012924
vt 0.482421 0.220342
vt 0.450248 0.376418
vt 0.431948 0.095211
vt 0.020213 0.184712
vt 0.141138 0.462635
vt 0.141138 0.462635
vt 0.255848 0.487076
vt 0.366318 0.458649
vt 0.096213 0.073226
vt 0.012720 0.277618
vt 0.056574 0.386627
vt 0.244152 0.012924
vt 0.482421 0.220342
vt 0.450248 0.376418
vt 0.431948 0.095211
vt 0.020213 0.184712
vt 0.141138 0.462635
vt 0.255848 0.487076
vt 0.012720 0.277618
vt 0.358862 0.037365
vt 0.141138 0.462635
vn -0.6703 -0.5926 -0.4466
vn 0.9220 -0.3849 -0.0417
vn -0.0482 -0.9891 0.1390
vn -0.8450 -0.5265 0.0937
vn 0.6569 -0.6300 0.4143
vn -0.2293 -0.4155 0.8802
vn 0.9803 -0.0737 -0.1835
vn 0.1177 -0.8519 -0.5102
vn -0.8024 0.5924 -0.0718
vn -0.3560 0.7059 0.6123
vn 0.6142 0.5626 0.5533
vn -0.8791 0.4165 0.2316
vn 0.4731 0.3726 0.7983
vn -0.6036 0.4045 -0.6871
vn 0.1667 0.9403 -0.2967
vn 0.9025 0.4270 -0.0562
vn 0.7828 -0.5986 0.1702
vn -0.7077 0.5580 -0.4334
vn -0.9161 -0.2117 0.3405
vn -0.3244 -0.7598 0.5635
vn 0.4469 -0.2607 0.8557
vn 0.5426 -0.5065 0.6702
vn -0.9240 -0.1191 0.3634
vn -0.1631 -0.7473 0.6442
vn -0.6962 0.6272 -0.3492
vn -0.7947 -0.6048 -0.0524
vn -0.2357 0.2871 0.9284
vn -0.9200 0.1552 -0.3599
vn 0.0778 0.9396 -0.3332
vn -0.8694 0.3990 0.2913
vn -0.8351 0.5500 0.0032
vn -0.6840 -0.3804 -0.6225
vn 0.1541 -0.9409 0.3015
vn -0.7521 -0.5960 0.2813
vn -0.7787 0.1679 0.6045
vn -0.8920 0.0400 -0.4503
vn 0.9717 0.2269 0.0660
vn -0.6656 -0.3663 0.6502
vn 0.1856 0.0535 0.9812
vn 0.9056 -0.3762 0.1956
vn 0.5325 -0.6328 0.5621
vn 0.9951 -0.0634 0.0762
vn -0.5197 0.6846 0.5111
vn 0.4429 0.5599 0.7002
vn 0.8784 0.4468 0.1696
vn 0.7191 -0.5936 0.3613
vn 0.9183 0.2372 0.3169
vn -0.8136 -0.3767 0.4429
vn -0.0747 0.0482 0.9960
vn 0.8291 -0.3687 0.4204
vn 0.2239 -0.9642 -0.1420
vn 0.3774 -0.6304 0.6783
vn 0.9423 -0.0528 0.3305
vn -0.6335 0.6856 0.3585
vn 0.2418 0.5575 0.7942
vn 0.7984 0.4498 0.4004
vn 0.6079 -0.5904 0.5309
vn -0.1661 -0.9740 0.1539
vn 0.3642 -0.5064 0.7816
vn -0.9014 -0.3847 0.1987
vn -0.3335 0.0364 0.9420
vn 0.6913 -0.3702 0.6206
vn 0.2544 -0.9626 -0.0927
vn 0.1923 -0.6360 0.7473
vn 0.8227 -0.0552 0.5658
vn -0.7119 0.6774 0.1851
vn 0.0234 0.5517 0.8337
vn 0.6656 0.4468 0.5978
vn 0.4518 -0.5928 0.6667
vn -0.8785 -0.2392 -0.4136
vn -0.2856 -0.2887 0.9138
vn -0.9151 -0.4031 -0.0000
vn -0.6678 0.0323 -0.7437
vn 0.3812 -0.4569 -0.8037
vn 0.2726 -0.9621 0.0000
vn -0.2196 -0.6115 -0.7601
vn 0.5904 -0.0663 -0.8044
vn 0.8444 0.5357 0.0001
vn -0.3958 0.5112 -0.7629
vn 0.3879 0.2658 -0.8825
vn 0.3344 0.5316 -0.7782
vn 0.0702 -0.6615 -0.7467
vn -0.6316 -0.2403 -0.7371
vn 0.6130 0.3248 -0.7203
vn 0.3839 0.1162 0.9160
vn -0.6895 -0.6021 0.4026
vn -0.0479 -0.9891 -0.1391
vn 0.1561 -0.7781 0.6084
vn -0.8580 -0.4985 -0.1234
vn -0.2292 -0.4155 -0.8802
vn 0.3752 0.6764 0.6338
vn 0.1178 -0.8519 0.5102
vn 0.1823 0.8843 0.4298
vn -0.3562 0.7059 -0.6122
vn -0.7270 0.5663 0.3883
vn 0.0417 0.9974 -0.0586
vn -0.2907 0.1558 -0.9440
vn 0.2771 -0.0414 0.9600
vn 0.1667 0.9403 0.2967
vn -0.5794 0.2056 0.7887
vn 0.4747 -0.4532 0.7545
vn 0.0684 0.9802 -0.1856
vn -0.1611 0.5353 -0.8292
vn -0.3244 -0.7598 -0.5634
vn -0.9308 0.0741 -0.3579
vn 0.1538 -0.9716 0.1797
vn 0.0270 0.9991 -0.0323
vn -0.7817 0.0878 -0.6175
vn 0.2926 -0.3358 0.8953
vn -0.9255 0.1998 0.3218
vn -0.8140 -0.5809 0.0062
vn -0.2313 0.2912 -0.9283
vn -0.8821 0.1206 0.4554
vn 0.0571 0.6081 0.7918
vn -0.8502 0.5160 -0.1048
vn -0.6944 -0.4473 0.5637
vn 0.1588 -0.9388 -0.3057
vn -0.7604 -0.5567 -0.3345
vn 0.2937 0.9426 0.1588
vn -0.6658 -0.3663 -0.6500
vn -0.9590 0.2728 -0.0771
vn 0.6063 0.1315 0.7843
vn 0.3205 -0.7724 0.5483
vn 0.5599 0.6854 0.4655
vn -0.5198 0.6846 -0.5110
vn -0.5285 0.1393 -0.8374
vn 0.0341 0.9776 -0.2079
vn 0.6633 -0.4398 0.6055
vn 0.3051 0.9483 0.0879
vn -0.3519 0.8573 -0.3757
vn -0.8136 -0.3767 -0.4429
vn 0.7799 0.1429 0.6094
vn 0.2240 -0.9642 0.1419
vn -0.7916 -0.5093 0.3376
vn 0.6616 0.6921 0.2885
vn -0.6336 0.6856 -0.3584
vn -0.7240 0.1291 -0.6776
vn -0.0452 0.9770 -0.2085
vn 0.8046 -0.4274 0.4124
vn -0.1661 -0.9740 -0.1539
vn -0.9763 -0.1947 -0.0950
vn -0.4520 0.8504 -0.2694
vn -0.9015 -0.3846 -0.1985
vn 0.9129 0.1461 0.3811
vn -0.7438 -0.4607 -0.4842
vn 0.2544 -0.9626 0.0927
vn 0.6847 0.7014 0.1978
vn -0.7119 0.6774 -0.1850
vn -0.8778 0.1183 -0.4642
vn -0.1064 0.9750 -0.1949
vn 0.8862 -0.4248 0.1848
vn -0.7042 0.4908 -0.5130
vn -0.5812 -0.7811 -0.2284
vn -0.8456 -0.4684 -0.2561
vn 0.3708 0.3053 0.8771
vn -0.8430 0.4899 -0.2222
s 1
f 21/1/1 32/2/2 20/3/3
f 14/4/4 34/5/5 22/6/6
f 20/3/3 31/7/7 19/8/8
f 16/9/9 29/10/10 28/11/11
f 15/12/12 28/11/11 27/13/13
f 18/14/14 25/15/15 30/16/16
f 22/6/6 33/17/17 21/1/1
f 17/18/18 30/16/16 29/10/10
f 23/19/19 36/20/20 35/21/21
f 23/19/19 26/22/22 14/4/4
f 11/23/23 24/24/24 23/19/19
f 5/25/25 18/14/14 17/18/18
f 10/26/26 21/1/1 9/27/27
f 6/28/28 13/29/29 18/14/14
f 3/30/30 16/9/9 15/12/12
f 4/31/31 17/18/18 16/9/9
f 8/32/32 19/8/8 7/33/33
f 2/34/34 22/6/6 10/26/26
f 9/27/27 20/3/3 8/32/32
f 12/35/35 15/12/12 24/24/24
f 1/36/36 19/8/8 13/29/29
f 11/23/23 14/4/4 2/34/34
f 31/7/7 37/37/37 25/15/15
f 36/20/20 39/38/38 48/39/39
f 33/17/17 44/40/40 32/2/2
f 26/22/22 46/41/41 34/5/5
f 32/2/2 43/42/42 31/7/7
f 28/11/11 41/43/43 40/44/44
f 27/13/13 40/44/44 39/38/38
f 25/15/15 42/45/45 30/16/16
f 34/5/5 45/46/46 33/17/17
f 29/10/10 42/45/45 41/43/43
f 24/24/24 27/13/13 36/20/20
f 19/8/8 25/15/15 13/29/29
f 43/42/42 49/47/47 37/37/37
f 48/39/39 51/48/48 60/49/49
f 45/46/46 56/50/50 44/40/40
f 46/41/41 50/51/51 58/52/52
f 44/40/40 55/53/53 43/42/42
f 40/44/44 53/54/54 52/55/55
f 39/38/38 52/55/55 51/48/48
f 37/37/37 54/56/56 42/45/45
f 46/41/41 57/57/57 45/46/46
f 42/45/45 53/54/54 41/43/43
f 26/22/22 47/58/58 38/59/59
f 35/21/21 48/39/39 47/58/58
f 60/49/49 63/60/60 72/61/61
f 57/57/57 68/62/62 56/50/50
f 58/52/52 62/63/63 70/64/64
f 56/50/50 67/65/65 55/53/53
f 52/55/55 65/66/66 64/67/67
f 51/48/48 64/67/67 63/60/60
f 49/47/47 66/68/68 54/56/56
f 58/52/52 69/69/69 57/57/57
f 54/56/56 65/66/66 53/54/54
f 59/70/70 72/61/61 71/71/71
f 38/59/59 59/70/70 50/51/51
f 47/58/58 60/49/49 59/70/70
f 72/61/61 147/72/72 156/73/73
f 69/69/69 152/74/74 68/62/62
f 70/64/64 146/75/75 154/76/76
f 68/62/62 151/77/77 67/65/65
f 64/67/67 149/78/78 148/79/79
f 63/60/60 148/79/79 147/72/72
f 61/80/80 150/81/81 66/68/68
f 70/64/64 153/82/82 69/69/69
f 66/68/68 149/78/78 65/66/66
f 71/71/71 156/73/73 155/83/83
f 55/53/53 61/80/80 49/47/47
f 50/51/51 71/71/71 62/63/63
f 67/65/65 145/84/84 61/80/80
f 62/63/63 155/83/83 146/75/75
f 11/23/23 10/26/26 1/36/36
f 104/85/85 93/86/86 92/87/87
f 106/88/88 86/89/89 94/90/90
f 103/91/91 92/87/87 91/92/92
f 88/93/93 101/94/94 89/95/95
f 87/96/96 100/97/97 88/93/93
f 90/98/98 97/99/99 85/100/100
f 105/101/101 94/90/90 93/86/86
f 89/95/95 102/102/102 90/98/98
f 95/103/103 108/104/104 96/105/105
f 98/106/106 95/103/103 86/89/89
f 83/107/107 96/105/105 84/108/108
f 77/109/109 90/98/98 78/110/110
f 93/86/86 82/111/111 81/112/112
f 78/110/110 85/100/100 73/113/113
f 75/114/114 88/93/93 76/115/115
f 76/115/115 89/95/95 77/109/109
f 91/92/92 80/116/116 79/117/117
f 94/90/90 74/118/118 82/111/111
f 92/87/87 81/112/112 80/116/116
f 84/108/108 87/96/96 75/114/114
f 73/113/113 91/92/92 79/117/117
f 86/89/89 83/107/107 74/118/118
f 109/119/119 103/91/91 97/99/99
f 108/104/104 111/120/120 99/121/121
f 116/122/122 105/101/101 104/85/85
f 118/123/123 98/106/106 106/88/88
f 115/124/124 104/85/85 103/91/91
f 100/97/97 113/125/125 101/94/94
f 99/121/121 112/126/126 100/97/97
f 114/127/127 97/99/99 102/102/102
f 117/128/128 106/88/88 105/101/101
f 101/94/94 114/127/127 102/102/102
f 96/105/105 99/121/121 87/96/96
f 97/99/99 91/92/92 85/100/100
f 121/129/129 115/124/124 109/119/119
f 120/130/130 123/131/131 111/120/120
f 128/132/132 117/128/128 116/122/122
f 118/123/123 122/133/133 110/134/134
f 127/135/135 116/122/122 115/124/124
f 112/126/126 125/136/136 113/125/125
f 111/120/120 124/137/137 112/126/126
f 126/138/138 109/119/119 114/127/127
f 129/139/139 118/123/123 117/128/128
f 125/136/136 114/127/127 113/125/125
f 98/106/106 119/140/140 107/141/141
f 107/141/141 120/130/130 108/104/104
f 132/142/142 135/143/143 123/131/131
f 140/144/144 129/139/139 128/132/132
f 130/145/145 134/146/146 122/133/133
f 139/147/147 128/132/132 127/135/135
f 124/137/137 137/148/148 125/136/136
f 123/131/131 136/149/149 124/137/137
f 138/150/150 121/129/129 126/138/138
f 141/151/151 130/145/145 129/139/139
f 137/148/148 126/138/138 125/136/136
f 131/152/152 144/153/153 132/142/142
f 110/134/134 131/152/152 119/140/140
f 119/140/140 132/142/142 120/130/130
f 144/153/153 147/72/72 135/143/143
f 152/74/74 141/151/151 140/144/144
f 142/154/154 146/75/75 134/146/146
f 151/77/77 140/144/144 139/147/147
f 136/149/149 149/78/78 137/148/148
f 135/143/143 148/79/79 136/149/149
f 150/81/81 133/155/155 138/150/150
f 153/82/82 142/154/154 141/151/151
f 149/78/78 138/150/150 137/148/148
f 143/156/156 156/73/73 144/153/153
f 133/155/155 127/135/135 121/129/129
f 122/133/133 143/156/156 131/152/152
f 145/84/84 139/147/147 133/155/155
f 134/146/146 155/83/83 143/156/156
f 73/113/113 82/111/111 75/114/114
f 21/1/1 33/17/17 32/2/2
f 14/4/4 26/22/22 34/5/5
f 20/3/3 32/2/2 31/7/7
f 16/9/9 17/18/18 29/10/10
f 15/12/12 16/9/9 28/11/11
f 18/14/14 13/29/29 25/15/15
f 22/6/6 34/5/5 33/17/17
f 17/18/18 18/14/14 30/16/16
f 23/19/19 24/24/24 36/20/20
f 23/19/19 35/21/21 26/22/22
f 11/23/23 12/35/35 24/24/24
f 5/25/25 6/28/28 18/14/14
f 10/26/26 22/6/6 21/1/1
f 6/28/28 1/36/36 13/29/29
f 3/30/30 4/31/31 16/9/9
f 4/31/31 5/25/25 17/18/18
f 8/32/32 20/3/3 19/8/8
f 2/34/34 14/4/4 22/6/6
f 9/27/27 21/1/1 20/3/3
f 12/35/35 3/30/30 15/12/12
f 1/36/36 7/33/33 19/8/8
f 11/23/23 23/19/19 14/4/4
f 31/7/7 43/42/42 37/37/37
f 36/20/20 27/13/13 39/38/38
f 33/17/17 45/46/46 44/40/40
f 26/22/22 38/59/59 46/41/41
f 32/2/2 44/40/40 43/42/42
f 28/11/11 29/10/10 41/43/43
f 27/13/13 28/11/11 40/44/44
f 25/15/15 37/37/37 42/45/45
f 34/5/5 46/41/41 45/46/46
f 29/10/10 30/16/16 42/45/45
f 24/24/24 15/12/12 27/13/13
f 19/8/8 31/7/7 25/15/15
f 43/42/42 55/53/53 49/47/47
f 48/39/39 39/38/38 51/48/48
f 45/46/46 57/57/57 56/50/50
f 46/41/41 38/59/59 50/51/51
f 44/40/40 56/50/50 55/53/53
f 40/44/44 41/43/43 53/54/54
f 39/38/38 40/44/44 52/55/55
f 37/37/37 49/47/47 54/56/56
f 46/41/41 58/52/52 57/57/57
f 42/45/45 54/56/56 53/54/54
f 26/22/22 35/21/21 47/58/58
f 35/21/21 36/20/20 48/39/39
f 60/49/49 51/48/48 63/60/60
f 57/57/57 69/69/69 68/62/62
f 58/52/52 50/51/51 62/63/63
f 56/50/50 68/62/62 67/65/65
f 52/55/55 53/54/54 65/66/66
f 51/48/48 52/55/55 64/67/67
f 49/47/47 61/80/80 66/68/68
f 58/52/52 70/64/64 69/69/69
f 54/56/56 66/68/68 65/66/66
f 59/70/70 60/49/49 72/61/61
f 38/59/59 47/58/58 59/70/70
f 47/58/58 48/39/39 60/49/49
f 72/61/61 63/60/60 147/72/72
f 69/69/69 153/82/82 152/74/74
f 70/64/64 62/63/63 146/75/75
f 68/62/62 152/74/74 151/77/77
f 64/67/67 65/66/66 149/78/78
f 63/60/60 64/67/67 148/79/79
f 61/80/80 145/84/84 150/81/81
f 70/64/64 154/76/76 153/82/82
f 66/68/68 150/81/81 149/78/78
f 71/71/71 72/61/61 156/73/73
f 55/53/53 67/65/65 61/80/80
f 50/51/51 59/70/70 71/71/71
f 67/65/65 151/77/77 145/84/84
f 62/63/63 71/71/71 155/83/83
f 5/25/25 4/31/31 6/28/28
f 4/31/31 3/30/30 6/28/28
f 3/30/30 12/35/35 11/23/23
f 11/23/23 2/34/34 10/26/26
f 10/26/26 9/27/27 1/36/36
f 9/27/27 8/32/32 7/33/33
f 1/36/36 9/27/27 7/33/33
f 1/36/36 6/28/28 3/30/30
f 3/30/30 11/23/23 1/36/36
f 104/85/85 105/101/101 93/86/86
f 106/88/88 98/106/106 86/89/89
f 103/91/91 104/85/85 92/87/87
f 88/93/93 100/97/97 101/94/94
f 87/96/96 99/121/121 100/97/97
f 90/98/98 102/102/102 97/99/99
f 105/101/101 106/88/88 94/90/90
f 89/95/95 101/94/94 102/102/102
f 95/103/103 107/141/141 108/104/104
f 98/106/106 107/141/141 95/103/103
f 83/107/107 95/103/103 96/105/105
f 77/109/109 89/95/95 90/98/98
f 93/86/86 94/90/90 82/111/111
f 78/110/110 90/98/98 85/100/100
f 75/114/114 87/96/96 88/93/93
f 76/115/115 88/93/93 89/95/95
f 91/92/92 92/87/87 80/116/116
f 94/90/90 86/89/89 74/118/118
f 92/87/87 93/86/86 81/112/112
f 84/108/108 96/105/105 87/96/96
f 73/113/113 85/100/100 91/92/92
f 86/89/89 95/103/103 83/107/107
f 109/119/119 115/124/124 103/91/91
f 108/104/104 120/130/130 111/120/120
f 116/122/122 117/128/128 105/101/101
f 118/123/123 110/134/134 98/106/106
f 115/124/124 116/122/122 104/85/85
f 100/97/97 112/126/126 113/125/125
f 99/121/121 111/120/120 112/126/126
f 114/127/127 109/119/119 97/99/99
f 117/128/128 118/123/123 106/88/88
f 101/94/94 113/125/125 114/127/127
f 96/105/105 108/104/104 99/121/121
f 97/99/99 103/91/91 91/92/92
f 121/129/129 127/135/135 115/124/124
f 120/130/130 132/142/142 123/131/131
f 128/132/132 129/139/139 117/128/128
f 118/123/123 130/145/145 122/133/133
f 127/135/135 128/132/132 116/122/122
f 112/126/126 124/137/137 125/136/136
f 111/120/120 123/131/131 124/137/137
f 126/138/138 121/129/129 109/119/119
f 129/139/139 130/145/145 118/123/123
f 125/136/136 126/138/138 114/127/127
f 98/106/106 110/134/134 119/140/140
f 107/141/141 119/140/140 120/130/130
f 132/142/142 144/153/153 135/143/143
f 140/144/144 141/151/151 129/139/139
f 130/145/145 142/154/154 134/146/146
f 139/147/147 140/144/144 128/132/132
f 124/137/137 136/149/149 137/148/148
f 123/131/131 135/143/143 136/149/149
f 138/150/150 133/155/155 121/129/129
f 141/151/151 142/154/154 130/145/145
f 137/148/148 138/150/150 126/138/138
f 131/152/152 143/156/156 144/153/153
f 110/134/134 122/133/133 131/152/152
f 119/140/140 131/152/152 132/142/142
f 144/153/153 156/73/73 147/72/72
f 152/74/74 153/82/82 141/151/151
f 142/154/154 154/76/76 146/75/75
f 151/77/77 152/74/74 140/144/144
f 136/149/149 148/79/79 149/78/78
f 135/143/143 147/72/72 148/79/79
f 150/81/81 145/84/84 133/155/155
f 153/82/82 154/76/76 142/154/154
f 149/78/78 150/81/81 138/150/150
f 143/156/156 155/83/83 156/73/73
f 133/155/155 139/147/147 127/135/135
f 122/133/133 134/146/146 143/156/156
f 145/84/84 151/77/77 139/147/147
f 134/146/146 146/75/75 155/83/83
f 75/114/114 76/115/115 78/110/110
f 76/115/115 77/109/109 78/110/110
f 78/110/110 73/113/113 75/114/114
f 73/113/113 79/117/117 81/112/112
f 79/117/117 80/116/116 81/112/112
f 81/112/112 82/111/111 73/113/113
f 82/111/111 74/118/118 83/107/107
f 83/107/107 84/108/108 75/114/114
f 82/111/111 83/107/107 75/114/114
