# Blender v2.90.1 OBJ File: ''
# www.blender.org
o Cylinder
v -0.001881 0.011605 -0.021797
v 0.810458 0.009825 -0.022507
v 0.810458 0.018130 -0.017149
v -0.001881 -0.018838 0.013190
v 0.810458 -0.017893 0.014146
v 0.810458 -0.022865 0.003469
v 0.810458 0.020358 0.013190
v -0.001881 0.012341 0.020160
v -0.001881 0.021021 0.012199
v 0.810458 0.024938 -0.002317
v -0.001881 0.024804 -0.003676
v -0.001881 0.018883 -0.016035
v -0.001881 0.000164 -0.024591
v 0.810458 0.001356 -0.024591
v 0.810458 -0.014082 -0.019783
v -0.001881 -0.015138 -0.018917
v 0.810458 -0.021882 -0.007926
v -0.001881 -0.022124 -0.007128
v -0.001881 -0.022872 0.002125
v -0.001881 -0.010085 0.020554
v 0.810458 -0.010821 0.020160
v 0.810458 0.011605 0.020554
v -0.001881 0.001356 0.023347
v 0.810458 0.000164 0.023347
v 0.810458 -0.048646 -0.017725
v 0.810458 -0.031263 -0.044148
v 0.810458 0.003142 -0.054862
v 0.996579 -0.000198 0.000101
v 0.810458 0.045488 0.029335
v 0.810458 0.022015 -0.050219
v 0.810458 0.025983 0.045744
v 0.810458 -0.050836 0.007671
v 0.810458 -0.039755 0.031465
v 0.810458 0.000484 0.051969
v 0.810458 0.040524 -0.038277
v 0.810458 -0.023996 0.044867
v 0.810458 0.055694 -0.005224
vt 0.575317 1.000000
vt 0.562500 0.500000
vt 0.628903 0.500000
vt 0.152152 1.000000
vt 0.143433 0.500000
vt 0.222848 0.500000
vt 0.847848 0.500000
vt 0.919067 1.000000
vt 0.839652 1.000000
vt 0.738919 0.500000
vt 0.729831 1.000000
vt 0.637817 1.000000
vt 0.496097 1.000000
vt 0.504098 0.500000
vt 0.395169 0.500000
vt 0.386081 1.000000
vt 0.299683 0.500000
vt 0.294067 1.000000
vt 0.231567 1.000000
vt 0.075317 1.000000
vt 0.080933 0.500000
vt 0.020213 0.184712
vt 0.366318 0.458649
vt 0.141138 0.462635
vt 0.924683 0.500000
vt 0.988143 1.000000
vt 0.018433 0.500000
vt 0.012817 1.000000
vt 0.299683 0.500000
vt 0.395169 0.500000
vt 0.504098 0.500000
vt 0.504098 0.500000
vt 0.847848 0.500000
vt 0.562500 0.500000
vt 0.924683 0.500000
vt 0.222848 0.500000
vt 0.143433 0.500000
vt 0.990983 0.500000
vt 0.990983 0.500000
vt 0.628903 0.500000
vt 0.080933 0.500000
vt 0.738919 0.500000
vt 0.738919 0.500000
vt 0.018433 0.500000
vt 0.080933 0.500000
vt 0.990983 0.500000
vt 0.299683 0.500000
vt 0.628903 0.500000
vt 0.395169 0.500000
vt 0.924683 0.500000
vt 0.143433 0.500000
vt 0.562500 0.500000
vt 0.847848 0.500000
vt 0.222848 0.500000
vt 0.096213 0.073226
vt 0.244152 0.012924
vt 0.358862 0.037365
vt 0.431948 0.095211
vt 0.482421 0.220342
vt 0.450248 0.376418
vt 0.255848 0.487076
vt 0.056574 0.386627
vt 0.012720 0.277618
vn 0.6622 -0.3290 0.6732
vn 0.7462 -0.2634 0.6114
vn 0.7758 -0.4769 0.4132
vn 0.6535 0.6201 -0.4340
vn 0.7584 0.5184 -0.3951
vn 0.7699 0.6284 -0.1109
vn 0.7779 -0.5258 -0.3440
vn 0.6593 -0.3685 -0.6553
vn 0.6469 -0.6574 -0.3864
vn 0.7952 -0.6048 0.0434
vn 0.6391 -0.7647 0.0820
vn 0.6597 -0.5873 0.4688
vn 0.6469 0.0440 0.7613
vn 0.7727 0.0191 0.6344
vn 0.7912 0.3679 0.4886
vn 0.6393 0.4928 0.5903
vn 0.7666 0.6066 0.2104
vn 0.6598 0.7162 0.2276
vn 0.6621 0.7426 -0.1003
vn 0.6593 0.3402 -0.6705
vn 0.7575 0.3094 -0.5749
vn 0.7621 -0.2929 -0.5774
vn 0.6535 -0.0163 -0.7568
vn 0.7699 0.0137 -0.6380
vn 0.5517 0.7878 0.2740
vn 0.5298 0.5089 0.6785
vn 0.5409 0.0221 0.8408
vn -0.9999 0.0093 -0.0072
vn 0.5384 -0.7054 -0.4610
vn 0.5612 -0.3279 0.7599
vn 0.5533 -0.3783 -0.7422
vn 0.5501 0.8225 -0.1444
vn 0.5603 0.6586 -0.5023
vn 0.5488 0.0167 -0.8358
vn 0.5366 -0.6366 0.5539
vn 0.5606 0.3922 -0.7293
vn 0.5232 -0.8500 0.0621
s 1
f 1/1/1 2/2/2 3/3/3
f 4/4/4 5/5/5 6/6/6
f 7/7/7 8/8/8 9/9/9
f 10/10/10 9/9/9 11/11/11
f 10/10/10 12/12/12 3/3/3
f 2/2/2 13/13/13 14/14/14
f 12/12/12 1/1/1 3/3/3
f 15/15/15 13/13/13 16/16/16
f 17/17/17 16/16/16 18/18/18
f 17/17/17 19/19/19 6/6/6
f 5/5/5 20/20/20 21/21/21
f 19/19/19 4/4/4 6/6/6
f 18/22/18 8/23/8 20/24/20
f 22/25/22 23/26/23 8/8/8
f 24/27/24 20/20/20 23/28/23
f 15/15/15 25/29/25 26/30/26
f 27/31/27 26/30/26 28/32/28
f 10/10/10 29/33/29 7/7/7
f 14/14/14 30/34/30 2/2/2
f 7/7/7 31/35/31 22/25/22
f 17/17/17 32/36/32 25/29/25
f 6/6/6 33/37/33 32/36/32
f 22/25/22 34/38/34 24/39/24
f 3/3/3 30/34/30 35/40/35
f 24/27/24 36/41/36 21/21/21
f 21/21/21 33/37/33 5/5/5
f 10/10/10 35/40/35 37/42/37
f 14/14/14 26/30/26 27/31/27
f 37/42/37 35/40/35 28/43/28
f 36/41/36 34/44/34 28/45/28
f 34/38/34 31/35/31 28/46/28
f 25/29/25 32/36/32 28/47/28
f 35/40/35 30/34/30 28/48/28
f 26/30/26 25/29/25 28/49/28
f 31/35/31 29/33/29 28/50/28
f 33/37/33 36/41/36 28/51/28
f 30/34/30 27/31/27 28/52/28
f 29/33/29 37/42/37 28/53/28
f 32/36/32 33/37/33 28/54/28
f 7/7/7 22/25/22 8/8/8
f 10/10/10 7/7/7 9/9/9
f 10/10/10 11/11/11 12/12/12
f 2/2/2 1/1/1 13/13/13
f 15/15/15 14/14/14 13/13/13
f 17/17/17 15/15/15 16/16/16
f 17/17/17 18/18/18 19/19/19
f 5/5/5 4/4/4 20/20/20
f 18/22/18 16/55/16 13/56/13
f 13/56/13 1/57/1 18/22/18
f 1/57/1 12/58/12 18/22/18
f 12/58/12 11/59/11 9/60/9
f 9/60/9 8/23/8 12/58/12
f 8/23/8 23/61/23 20/24/20
f 12/58/12 8/23/8 18/22/18
f 20/24/20 4/62/4 19/63/19
f 18/22/18 20/24/20 19/63/19
f 22/25/22 24/39/24 23/26/23
f 24/27/24 21/21/21 20/20/20
f 15/15/15 17/17/17 25/29/25
f 10/10/10 37/42/37 29/33/29
f 14/14/14 27/31/27 30/34/30
f 7/7/7 29/33/29 31/35/31
f 17/17/17 6/6/6 32/36/32
f 6/6/6 5/5/5 33/37/33
f 22/25/22 31/35/31 34/38/34
f 3/3/3 2/2/2 30/34/30
f 24/27/24 34/44/34 36/41/36
f 21/21/21 36/41/36 33/37/33
f 10/10/10 3/3/3 35/40/35
f 14/14/14 15/15/15 26/30/26
